# xmcd
#
# Track frame offsets:
#	150
#	16364
#	29987
#	44457
#	60398
#	77089
#	92415
#	105709
#	118952
#	137907
#	153887
#	169948
#	187474
#	199850
#	215536
#	231194
#	243105
#	256729
#	273345
#	288790
#
# Disc length: 4001 seconds
#
# Revision: 0
# Processed by: cddbd v1.5.2PL0 Copyright (c) Steve Scherf et al.
# Submitted via: audiograbber 1.83.01
#
DISCID=210f9f14
DTITLE=Various Artist - CDX Volume 425 - June 2007
DYEAR=2007
DGENRE=Country
TTITLE0=Sara Evans - As If
TTITLE1=Danielle Peck - Bad For Me
TTITLE2=Jo Dee Messina - Biker Chick
TTITLE3=Merle Haggard - C'Mon Sixty Five
TTITLE4=Toby Keith - Love Me If You Can
TTITLE5=Brooks and Dunn - Proud Of The House We Built
TTITLE6=Rio Grand - That's My Memory
TTITLE7=Rio Grand - That's My Memory
TTITLE8=Pat Green - Way Back Texas
TTITLE9=Jenny Brooks - Baby FootPrints In The Sand
TTITLE10=Johhny Napp and Ray Benson - Bud's A Little Wiser
TTITLE11=Brad Cotter - God's Fingerprints
TTITLE12=Mustang Creek - He'll Never Be A Lawyer ('Cause He Can't Pass The Bar)
TTITLE13=Michael Chain - Rollin' Down Dixie
TTITLE14=Mollye Rees - Table 32
TTITLE15=Sonny Marshall - Talkin' To The Dog
TTITLE16=Miko Marks - The Son My Daddy Never Had
TTITLE17=Walt Wilkins And The Mystiqueros - Trains I Missed
TTITLE18=Beverley Mitchell - Walkin'
TTITLE19=Jeff Treece Band - House Keeper
EXTD=
EXTT0=
EXTT1=
EXTT2=
EXTT3=
EXTT4=
EXTT5=
EXTT6=
EXTT7=
EXTT8=
EXTT9=
EXTT10=
EXTT11=
EXTT12=
EXTT13=
EXTT14=
EXTT15=
EXTT16=
EXTT17=
EXTT18=
EXTT19=
PLAYORDER=
